<svg xmlns="http://www.w3.org/2000/svg" xmlns:xlink="http://www.w3.org/1999/xlink" fill="none" version="1.1" width="60" height="60" viewBox="0 0 60 60"><defs><clipPath id="master_svg0_3_0974"><rect x="0" y="0" width="60" height="60" rx="0"/></clipPath><clipPath id="master_svg1_3_1682"><rect x="8" y="8" width="45" height="45" rx="0"/></clipPath></defs><g clip-path="url(#master_svg0_3_0974)"><g clip-path="url(#master_svg1_3_1682)"><g><path d="M45.9688,13.625L15.03125,13.625C14.257812,13.625,13.625,14.257812,13.625,15.03125L13.625,45.9688C13.625,46.7422,14.257812,47.375,15.03125,47.375L45.9688,47.375C46.7422,47.375,47.375,46.7422,47.375,45.9688L47.375,15.03125C47.375,14.257812,46.7422,13.625,45.9688,13.625ZM40.976600000000005,39.0078L38.9727,41.011700000000005L30.5,32.5039L21.99219,40.976600000000005L19.98828,38.9727L28.5312,30.5L20.02344,21.99219L22.027340000000002,19.98828L30.5,28.5312L39.0078,20.02344L41.011700000000005,22.027340000000002L32.5039,30.5L40.976600000000005,39.0078Z" fill="#D82727" fill-opacity="1"/></g></g></g></svg>
