<svg width="64" height="64" xmlns="http://www.w3.org/2000/svg" style="vector-effect: non-scaling-stroke;" stroke="null" version="1.0" preserveAspectRatio="xMidYMid meet">
 <g stroke="null" id="Layer_1">
  <title stroke="null">Layer 1</title>
  <path stroke="#000000" id="svg_3" d="m53.81818,24.18182" opacity="undefined" stroke-width="5" fill="none"/>
  <path stroke="#000000" id="svg_4" d="m53.81818,32.90909" opacity="undefined" stroke-width="5" fill="none"/>
  <g stroke="null">
   <g stroke="null">
    <g stroke="null" fill="#000000" transform="translate(0 133) scale(0.1 -0.1)">
     <path stroke="null" d="m124.10911,1256.54109c-21.48727,-8.06859 -49.76,-31.12171 -64.46181,-53.02217c-23.74909,-35.73233 -26.01091,-51.86952 -26.01091,-195.95151c0,-134.86074 3.39273,-161.37183 22.61818,-193.64619c36.18909,-62.24342 55.41454,-66.85404 262.37089,-66.85404c173.02908,0 191.12362,2.30531 220.52725,24.20577c53.15272,40.34296 59.93818,66.85404 59.93818,235.14181c0,168.28776 -6.78545,194.79885 -59.93818,235.14181c-28.27272,20.74781 -49.76,24.20577 -203.56362,26.51109c-115.35272,2.30531 -184.33817,-1.15266 -211.47998,-11.52656zm169.63635,-250.12633l0,-207.47807l-79.16363,0c-121.00726,0 -124.39999,6.91594 -124.39999,207.47807c0,200.56213 3.39273,207.47807 124.39999,207.47807l79.16363,0l0,-207.47807zm226.1818,184.42495c20.35636,-20.74781 22.61818,-38.03765 22.61818,-184.42495c0,-200.56213 -3.39273,-207.47807 -124.39999,-207.47807l-79.16363,0l0,207.47807l0,207.47807l79.16363,0c64.46181,0 83.68727,-4.61062 101.78181,-23.05312z"/>
    </g>
   </g>
  </g>
 </g>

</svg>
